<?xml version="1.0" encoding="UTF-8" standalone="no"?>
<svg
   xmlns:dc="http://purl.org/dc/elements/1.1/"
   xmlns:cc="http://creativecommons.org/ns#"
   xmlns:rdf="http://www.w3.org/1999/02/22-rdf-syntax-ns#"
   xmlns:svg="http://www.w3.org/2000/svg"
   xmlns="http://www.w3.org/2000/svg"
   xmlns:sodipodi="http://sodipodi.sourceforge.net/DTD/sodipodi-0.dtd"
   xmlns:inkscape="http://www.inkscape.org/namespaces/inkscape"
   width="80.02037mm"
   height="40.937977mm"
   viewBox="0 0 80.02037 40.937977"
   version="1.1"
   id="svg8"
   inkscape:version="1.0.1 (3bc2e813f5, 2020-09-07)"
   sodipodi:docname="Logo.svg">
  <defs
     id="defs2">
    <linearGradient
       id="grad1"
       gradientTransform="scale(1.3980963,0.71525831)"
       x1="398.71475"
       y1="480.36029"
       x2="615.03687"
       y2="480.36029"
       gradientUnits="userSpaceOnUse">
      <stop
         offset="0%"
         stop-color="#dca336"
         stop-opacity="1.0000"
         id="stop36" />
      <stop
         offset="100%"
         stop-color="#ffffff"
         stop-opacity="1.0000"
         id="stop38" />
    </linearGradient>
  </defs>
  <sodipodi:namedview
     id="base"
     pagecolor="#ffffff"
     bordercolor="#666666"
     borderopacity="1.0"
     inkscape:pageopacity="0.0"
     inkscape:pageshadow="2"
     inkscape:zoom="1.4"
     inkscape:cx="85.977238"
     inkscape:cy="115.44013"
     inkscape:document-units="mm"
     inkscape:current-layer="g68"
     inkscape:document-rotation="0"
     showgrid="false"
     inkscape:window-width="1366"
     inkscape:window-height="728"
     inkscape:window-x="0"
     inkscape:window-y="0"
     inkscape:window-maximized="0" />
  <metadata
     id="metadata5">
    <rdf:RDF>
      <cc:Work
         rdf:about="">
        <dc:format>image/svg+xml</dc:format>
        <dc:type
           rdf:resource="http://purl.org/dc/dcmitype/StillImage" />
        <dc:title></dc:title>
      </cc:Work>
    </rdf:RDF>
  </metadata>
  <g
     inkscape:label="Слой 1"
     inkscape:groupmode="layer"
     id="layer1"
     transform="translate(-66.714894,-130.47344)">
    <g
       id="g68"
       transform="matrix(0.26458333,0,0,0.26458333,-80.774862,39.567452)">
      <g
         id="Layer1000">
        <path
           d="m 751.1451,364.6947 c -7.7749,0 -14.0788,6.3034 -14.0788,14.0786 0,7.7754 6.3034,14.0788 14.0788,14.0788 7.7754,0 14.0788,-6.3034 14.0788,-14.0788 0,-7.7754 -6.3036,-14.0786 -14.0788,-14.0786 z m 0,2.6788 c 6.296,0 11.3998,5.1038 11.3998,11.3998 0,6.2963 -5.1035,11.3998 -11.3998,11.3998 -6.296,0 -11.3998,-5.1038 -11.3998,-11.3998 0,-6.296 5.1038,-11.3998 11.3998,-11.3998 z m -13.6514,-10.6909 -0.0139,2.7272 27.317,0.0573 0.0138,-2.7272 z m -51.5851,23.298 v -0.976 l 0.003,-0.2075 -0.002,-0.2083 -0.0252,-0.6823 c -0.4513,-7.422 -6.6186,-13.2118 -14.0516,-13.2118 -7.7749,0 -14.0789,6.3034 -14.0789,14.0786 0,7.7754 6.3035,14.0788 14.0789,14.0788 5.1905,0 9.9314,-2.8474 12.3817,-7.3723 h -3.1615 c -2.1404,2.9423 -5.5598,4.6933 -9.2202,4.6933 -5.434,0 -10.1325,-3.8497 -11.1833,-9.1774 l -0.2004,-1.0151 z m -25.21,-3.6635 c 1.143,-5.2166 5.7898,-8.9436 11.1337,-8.9436 5.3441,0 9.991,3.727 11.1339,8.9436 l 0.2265,1.0323 h -22.7205 z m -16.8621,16.7533 h 2.7754 v -34.9013 h -2.7754 v 15.3649 h -20.3916 v -15.3649 h -2.7275 v 34.9013 h 2.7275 v -16.8095 h 20.3916 z m 55.9034,0 h 2.7275 v -36.394 h -2.7275 z m 22.4853,0 h 2.7272 v -36.394 h -2.7272 z"
           style="fill:#242424;fill-rule:evenodd"
           id="path34" />
        <defs
           id="defs41">
          <linearGradient
             id="linearGradient63">
            <stop
               offset="0%"
               stop-color="#dca336"
               stop-opacity="1.0000"
               id="stop59" />
            <stop
               offset="100%"
               stop-color="#ffffff"
               stop-opacity="1.0000"
               id="stop61" />
          </linearGradient>
        </defs>
        <path
           d="m 804.1819,373.2004 c 1.2946,-2.382 2.6345,-4.7387 3.9379,-7.1158 l 0.1066,-0.1939 0.2097,-0.0706 c 1.5336,-0.5165 3.0685,-1.0417 4.642,-1.4255 0.2132,-0.0522 0.4264,-0.1052 0.6384,-0.1625 2.1506,-0.5805 4.3075,-1.1384 6.4655,-1.6908 5.9179,-1.5143 11.8494,-2.9747 17.7911,-4.3926 4.7807,-1.141 9.5681,-2.2541 14.37,-3.3027 1.8898,-0.4127 3.7834,-0.8197 5.6443,-1.3498 0.3997,-0.1137 0.8039,-0.2299 1.1869,-0.3918 0.3869,-0.163 0.7761,-0.4351 0.6959,-0.9056 -0.1244,-0.7314 -1.2495,-0.6015 -1.7838,-0.5757 -0.4009,0.0192 -0.8014,0.0479 -1.2133,0.0912 l -0.0232,0.002 -0.032,0.007 c -1.4434,0.3215 -2.9098,0.5111 -4.3685,0.7447 -4.2639,0.6825 -8.468,1.686 -12.7077,2.4973 -9.6795,1.8527 -19.2178,4.4356 -28.5857,7.4857 l -1.306,0.4252 0.6259,-1.2226 c 0.1401,-0.2738 0.2787,-0.5482 0.4162,-0.8234 1.2727,-2.5444 2.4675,-5.1279 3.594,-7.7403 0.8065,-1.8697 1.5939,-3.7556 2.198,-5.7025 0.2605,-0.8396 1.0046,-3.075 0.0147,-3.6751 -1.0411,-0.6313 -2.7096,1.1959 -3.3392,1.8542 -3.5206,3.6819 -6.2583,8.7576 -8.5065,13.3049 -1.0525,2.1291 -2.0483,4.2854 -3.0251,6.45 l -0.0952,0.2109 -0.2155,0.0839 c -0.7676,0.2996 -1.5358,0.5975 -2.3054,0.8923 -0.8036,0.3079 -1.6087,0.6129 -2.4185,0.9048 -0.4748,0.1713 -0.9842,0.3844 -1.4783,0.4808 -3.3355,0.65 -6.584,1.7442 -9.7985,2.8287 -4.4935,1.516 -9.0164,2.9424 -13.5269,4.4062 -4.5094,1.4638 -9.038,2.8715 -13.5182,4.4232 -1.7447,0.604 -3.5005,1.1746 -5.2605,1.7325 -1.5287,0.4844 -3.0946,1.1316 -4.4654,1.9681 -0.2965,0.1811 -1.7487,1.0995 -1.5854,1.5485 0.0178,0.0488 0.0569,0.0842 0.0997,0.1109 l 0.0749,0.0462 0.0572,0.0666 c 0.0227,0.0269 0.0414,0.0547 0.0596,0.0774 0.1403,0.1579 0.7239,0.0337 0.898,0.004 1.54,-0.2659 3.0588,-0.6922 4.572,-1.0803 2.7717,-0.7109 5.4207,-1.8295 8.1252,-2.7508 1.5917,-0.5422 3.1995,-1.0337 4.8025,-1.5409 2.7317,-0.864 5.4657,-1.722 8.1997,-2.5792 4.337,-1.3601 8.6792,-2.7048 13.013,-4.0762 1.6498,-0.5222 3.2967,-1.0557 4.9255,-1.6404 0.3155,-0.1134 0.6305,-0.2274 0.9587,-0.3487 l 7.4324,-2.5308 -0.5332,1.1889 c -0.3478,0.775 -0.6976,1.5488 -1.0527,2.3204 -1.3054,2.8338 -2.4531,5.7359 -3.6667,8.6094 -0.2111,0.5006 -0.4271,0.9995 -0.6292,1.4933 l -0.006,0.0145 c -0.7719,1.8856 -1.5324,3.7763 -2.3335,5.6497 -0.7019,1.6412 -1.4275,3.2743 -2.2416,4.8631 -0.5922,1.1557 -1.2734,2.4344 -2.1226,3.4192 l -0.0519,0.06 -0.0663,0.0434 c -0.0578,0.0383 -0.1185,0.0698 -0.1797,0.1015 -0.4439,0.2313 -1.9752,1.6268 -2.34,2.0438 -0.3711,0.4243 -1.1563,1.821 -0.4431,2.2439 0.0697,0.0414 0.1474,0.0598 0.2282,0.0598 0.2585,0 0.6239,-0.1896 0.841,-0.3181 l 1.3842,-0.8192 -0.5644,1.5061 c -1.2291,3.2791 -2.1384,6.6866 -2.946,10.091 -1.1849,4.9953 -3.0824,12.5147 -0.8022,17.3631 0.9558,2.0327 2.6694,3.5566 5.0261,3.3925 4.519,-0.3152 7.7655,-2.9758 10.6804,-6.2144 1.483,-1.6478 3.1067,-3.1629 4.5779,-4.8209 6.9911,-7.8769 13.915,-15.8173 20.5688,-23.9828 0.3526,-0.4331 1.5468,-1.6404 0.9402,-2.2291 -0.5595,-0.5432 -1.4272,0.3753 -1.8269,0.7344 -1.1509,1.0338 -2.2465,2.1268 -3.3438,3.2168 -1.4017,1.3923 -2.5656,3.0277 -3.776,4.5842 -2.8925,3.7184 -5.9783,7.2822 -9.1406,10.7725 -2.7632,3.0498 -5.5851,6.0545 -8.6199,8.8372 -0.7809,0.7161 -1.5046,1.4919 -2.2881,2.206 -1.857,1.6925 -5.7912,4.9524 -8.4563,4.3208 -1.5177,-0.3597 -2.2258,-1.9383 -2.5963,-3.3038 -0.9572,-3.5277 -0.5292,-8.0572 0.423,-11.5557 1.7889,-6.5724 3.979,-12.9744 6.9874,-19.0967 2.6506,-5.3938 5.7004,-10.5755 8.5555,-15.8771 1.1631,-2.0342 2.3261,-4.0683 3.4892,-6.1027 l 0.0884,-0.1551 z m 0.6505,-9.7036 c 0.3719,-0.7673 0.7495,-1.5318 1.133,-2.2935 1.3513,-2.6836 2.7701,-5.3379 4.343,-7.8993 0.8121,-1.3224 1.6586,-2.6351 2.6085,-3.8639 l 2.3949,-3.0988 -1.4181,3.6507 c -0.2815,0.7251 -0.5922,1.4386 -0.9105,2.1484 -0.8155,1.8173 -1.7121,3.5971 -2.6331,5.3631 -1.0741,2.0594 -2.1892,4.0967 -3.3047,6.1339 l -0.1085,0.1984 -0.2157,0.0692 c -0.4031,0.129 -0.8071,0.256 -1.2116,0.3807 l -1.2461,0.3844 z m -4.5042,9.9924 c 0.7707,-1.8646 1.5837,-3.7114 2.4182,-5.5482 l 0.1015,-0.2234 0.9286,-0.3155 0.0545,-0.0193 1.472,-0.5034 -0.654,1.2563 c -0.7965,1.531 -1.6806,3.013 -2.5202,4.5201 -0.2036,0.3654 -0.4071,0.7311 -0.6106,1.0965 -0.8445,1.5148 -1.7972,1.1367 -1.19,-0.2631 z m -20.8417,36.7745 c -0.0964,-0.2384 -0.3498,-0.8587 -0.6554,-0.8672 -0.2679,-0.007 -1.279,1.0086 -1.688,1.2113 -0.6656,0.3296 -1.5092,0.3829 -2.0691,-0.1829 -1.94,-1.9612 1.713,-11.4105 -2.8527,-11.6875 -1.6005,-0.0969 -4.5859,5.6994 -5.2637,6.9789 -0.8827,1.6668 -1.7184,3.3582 -2.575,5.0386 -0.0547,0.1071 -0.1111,0.214 -0.1681,0.3203 -0.4425,0.8252 -1.3493,0.2685 -1.0202,-0.4926 0.7875,-1.8224 1.7275,-3.5726 2.5696,-5.3692 0.8312,-1.7727 3.1323,-6.5675 1.7748,-8.3704 l -0.0161,-0.0215 -0.0142,-0.023 c -0.1999,-0.3257 -0.4771,-0.5516 -0.845,-0.661 -0.7155,-0.2123 -1.4973,0.1358 -2.069,0.553 l -0.0173,0.0128 -0.0196,0.0167 c -8.2338,6.9523 -13.4246,17.0124 -22.5246,23.0434 -0.8601,0.57 -3.1885,2.037 -4.1806,1.4596 -1.2348,-0.7186 -0.2168,-4.5839 0.0978,-5.7229 0.15,-0.5428 0.1553,-1.0752 0.3821,-1.6126 l 0.093,-0.2203 0.2225,-0.0873 c 0.8904,-0.3489 1.8286,-0.5474 2.734,-0.8481 1.2212,-0.4057 2.4265,-0.9281 3.4472,-1.7249 2.0294,-1.5843 5.1228,-5.6962 2.3726,-7.9994 -2.9528,-2.73 -6.9922,3.3682 -8.2244,5.4729 -0.3838,0.6553 -0.7523,1.3201 -1.1557,1.9641 l -0.1284,0.2055 -0.2375,0.0491 c -0.5176,0.1068 -2.5963,1.1216 -2.1983,1.8036 l 0.0281,0.0485 0.0181,0.0527 c 0.0862,0.2503 0.2934,0.2903 0.5375,0.2693 l 0.8333,-0.0714 -0.2423,0.8008 c -0.025,0.0819 -0.0499,0.1641 -0.0754,0.246 -0.1358,0.4357 -0.3277,0.9871 -0.3544,1.4417 l -0.003,0.0482 -0.0107,0.0468 c -0.29,1.2467 -0.9621,5.2563 -0.2387,6.315 0.3027,0.4425 0.6936,0.7968 1.1826,1.0219 2.3338,1.0743 5.8646,-1.3122 7.683,-2.6422 1.6997,-1.243 3.2531,-2.7272 4.7367,-4.2171 1.7867,-1.7946 3.4963,-3.6643 5.184,-5.5513 1.6821,-1.8805 3.3384,-3.7834 5.0108,-5.6725 1.3932,-1.5737 2.789,-3.1478 4.2696,-4.6405 0.2984,-0.3011 0.5972,-0.6021 0.9104,-0.8881 l 1.4429,-1.3176 -0.5134,1.8851 c -0.1423,0.5227 -0.3138,1.034 -0.4785,1.5494 -1.2206,3.8174 -3.7547,7.0313 -4.996,10.8062 -0.618,1.8791 -1.4525,5.2424 0.8027,6.3816 0.7946,0.4014 2.0571,-1.3345 2.4313,-1.8541 1.2028,-1.669 2.192,-3.5382 3.1286,-5.3668 0.8819,-1.7224 1.7127,-3.4702 2.5291,-5.2246 0.292,-0.6276 0.5814,-1.2566 0.8762,-1.8833 0.1542,-0.3274 0.2959,-0.6701 0.4878,-0.9777 0.1899,-0.3038 0.3835,-0.6066 0.6041,-0.8895 0.1142,-0.146 0.2429,-0.2971 0.3767,-0.4258 l 0.7373,-0.7089 0.2103,1.0012 c 0.1537,0.7311 0.1128,1.9006 0.1035,2.66 -0.0108,0.8782 -0.0584,1.7663 -0.0581,2.6414 5e-4,1.4113 0.007,4.7471 1.4505,5.5167 1.2877,0.6869 2.7561,0.6441 4.0008,-0.1179 0.7937,-0.4856 1.7546,-1.5103 1.624,-2.5222 z m -33.8426,-5.8349 c 0.3229,0.2855 0.2826,0.8785 0.2118,1.2705 -0.1214,0.671 -0.4289,1.3516 -0.7813,1.9324 -0.3135,0.517 -0.7316,0.9839 -1.1772,1.3904 -0.614,0.5604 -2.1249,1.6146 -2.9529,1.6152 l -0.7653,5e-4 0.2222,-0.7322 c 0.2251,-0.7412 1.2076,-2.1078 1.7054,-2.7859 0.6913,-0.8625 1.5046,-1.8547 2.3575,-2.5543 l 0.0406,-0.0331 0.0456,-0.0252 c 0.2696,-0.1486 0.6137,-0.3005 0.9204,-0.1832 l 0.0961,0.0366 z m -185.1162,93.2312 0.0277,-0.0768 c 0.1199,-0.3331 0.0669,-0.6817 -0.0589,-1.0046 -0.0431,-0.11 -0.089,-0.2123 -0.1185,-0.328 l -0.0114,-0.0442 -0.004,-0.045 c -0.764,-8.5712 0.6097,-18.3124 2.7085,-26.6366 l 0.1154,-0.4581 0.4714,0.0309 c 6.0754,0.3988 13.183,-4.7305 17.5997,-8.4898 7.3766,-6.2787 13.8977,-14.1273 19.4681,-22.03 5.9626,-8.4592 11.6294,-18.0924 15.1058,-27.864 1.8193,-5.114 4.5402,-14.7158 0.3691,-19.2631 -0.6251,-0.6815 -1.3737,-1.2104 -2.206,-1.5925 l -0.008,-0.004 c -4.3903,-1.7507 -9.6217,1.4598 -13.0374,4.0082 -2.6813,2.0007 -5.127,4.2916 -7.5781,6.5619 -2.3233,2.1521 -4.5888,4.5318 -6.5574,7.0129 -0.5443,0.686 -1.1132,1.7402 -1.4882,2.5285 -0.165,0.3467 -1.0537,2.3834 -0.6234,2.6878 0.4527,0.3204 2.1972,-1.6412 2.4571,-1.9304 3.0484,-3.391 5.8113,-7.1109 9.284,-10.0924 3.1686,-2.7204 11.7519,-9.7308 16.1178,-7.7828 2.5209,1.1245 2.8304,4.9855 2.8313,7.382 0.004,11.8125 -9.6642,27.0388 -16.5691,36.2874 -3.278,4.3903 -6.7858,8.6128 -10.5015,12.6397 -3.2811,3.556 -6.7272,6.9803 -10.4122,10.1185 -2.541,2.1634 -10.6268,8.7863 -14.0477,7.1688 l -0.3835,-0.1814 0.0658,-0.4189 c 0.2123,-1.3527 0.5745,-2.6737 0.8951,-4.0031 0.4533,-1.8814 0.5358,-3.833 0.9718,-5.722 0.6658,-2.8854 1.4006,-5.7544 2.0789,-8.6369 1.3008,-5.5264 3.7485,-10.2132 6.5922,-15.0732 2.2006,-3.7611 4.4555,-7.4895 6.1441,-11.539 0.3317,-0.7268 0.163,-1.611 -0.5482,-2.037 -0.8283,-0.4964 -1.6908,0.0235 -2.1999,0.7183 -0.6857,0.936 -1.2351,2.0151 -1.7229,3.0657 -0.3844,0.8257 -1.2941,0.3625 -1.056,-0.4065 0.9448,-3.0549 1.9347,-6.0954 2.9345,-9.1324 2.5078,-7.6173 4.8104,-15.302 7.4506,-22.8753 0.5292,-1.518 1.8039,-5.2433 1.544,-6.7621 -0.0604,-0.3523 -0.2344,-0.7004 -0.5956,-0.8163 -1.3229,-0.4244 -2.2581,2.8184 -2.5191,3.6873 -2.9515,9.8277 -5.9732,19.6347 -9.1293,29.3989 -0.5374,1.6631 -1.1044,3.3163 -1.688,4.9638 -0.3223,0.9102 -0.6747,1.813 -0.94,2.7422 -2.4281,8.5045 -4.909,16.9982 -7.7641,25.3712 -0.2052,0.6018 -0.4274,1.1974 -0.6471,1.7944 l -0.0791,0.2145 -0.2058,0.0998 c -2.1317,1.0332 -3.1513,7.5756 -3.4189,9.6758 -0.2457,1.931 -0.394,3.8993 -0.4218,5.8459 -0.0173,1.2197 -0.019,2.8182 0.2438,4.0107 l 0.0267,0.1202 -0.0258,0.1202 c -1.0826,5.061 -3.2947,23.0083 -1.0605,27.0865 0.2444,0.4458 0.6973,0.6199 1.188,0.5289 0.184,-0.034 0.3609,-0.108 0.5066,-0.2265 l 0.0343,-0.028 0.0382,-0.0222 c 0.1211,-0.0705 0.2231,-0.17 0.3067,-0.2814 z m 48.1926,-53.1487 0.007,0.0218 c 0.3444,1.1044 0.961,2.0327 1.895,2.7425 l 0.008,0.007 0.0216,0.0134 c 3.6476,2.3122 10.4156,-2.6431 13.231,-4.8221 2.0043,-1.5511 3.9197,-3.215 5.7832,-4.9322 l 1.6846,-1.5526 -0.7662,2.1592 c -0.3265,0.9198 -0.6077,1.8567 -0.8254,2.8083 -0.1633,0.7126 -0.2622,1.4434 -0.2608,2.175 0.005,2.5954 1.4615,3.2862 2.8037,0.8396 1.5923,-3.7148 3.348,-7.5608 5.6608,-10.8867 1.0607,-1.5254 3.9232,-6.0353 5.768,-6.2802 1.7195,-0.2282 2.7065,0.9839 3.6445,0.9125 0.2364,-0.0182 0.4274,-0.1347 0.5935,-0.2979 0.3345,-0.4499 0.6149,-1.0358 0.3986,-1.5974 -0.4847,-1.2574 -2.8797,-1.4581 -4.0136,-1.3915 -3.1099,0.1823 -3.9821,1.8989 -5.6166,4.2219 -0.64,0.9094 -1.2543,1.8366 -1.8515,2.7746 -0.3385,0.5306 -0.838,0.4581 -0.9247,0.4133 -0.1151,-0.0567 -0.2925,-0.3722 -0.0831,-0.9204 0.0372,-0.097 0.0735,-0.1942 0.1086,-0.292 0.2197,-0.6075 0.8221,-2.1759 0.0683,-2.6252 -0.7123,-0.4252 -1.6832,0.6398 -2.1115,1.0965 -1.605,1.7107 -3.0572,3.5603 -4.5712,5.3501 -1.5137,1.7895 -3.1218,3.7301 -4.9461,5.2067 -1.6322,1.3206 -3.3506,2.5897 -5.1443,3.6816 -1.857,1.1305 -4.7478,2.6527 -6.9869,2.3323 l -0.0941,-0.0136 -0.0845,-0.0433 c -1.0105,-0.5185 -1.3538,-1.5619 -1.4502,-2.6229 -0.1114,-1.2286 0.1163,-2.4177 0.8382,-3.4356 l 0.0837,-0.1179 0.1298,-0.0635 c 1.7736,-0.8666 3.5609,-1.7124 5.2642,-2.7134 2.1498,-1.2636 6.4803,-4.6136 3.8214,-7.3272 -1.8987,-1.9384 -5.9981,1.2826 -7.2068,2.819 -1.2433,1.5798 -2.0928,3.4308 -3.2134,5.0959 l -0.1944,0.2894 -0.3461,-0.0431 c -0.2858,-0.0357 -0.5576,0.0215 -0.7909,0.1953 l -0.108,0.0802 -0.0598,0.1208 c -0.2395,0.4839 0.0278,0.9266 0.3625,1.2832 l 0.245,0.2611 -0.1304,0.3333 c -0.5763,1.4732 -0.9604,3.136 -0.6461,4.7149 z m 4.8765,-9.3892 c 0.5368,-0.8433 1.5669,-2.0693 2.2898,-2.7604 0.4833,-0.4623 1.0667,-0.9162 1.6872,-1.1744 0.3038,-0.1264 0.7594,-0.2534 1.0734,-0.1287 l 0.2722,0.108 0.0694,0.2843 c 0.1797,0.7362 -0.97,1.9321 -1.4825,2.4106 -0.7019,0.6551 -2.3057,1.6518 -3.1853,2.0758 l -1.794,0.8646 z m 84.2952,-2.1898 0.0443,-0.009 c 0.3299,-0.0655 0.6891,-0.0748 1.0241,-0.2151 3.2831,-1.2133 11.6688,-12.0626 14.1571,-15.1932 0.7412,-0.9326 1.6007,-2.0205 2.4619,-2.8278 l 1.4468,-1.3561 -0.5114,1.9159 c -0.4708,1.7649 -1.3861,3.7307 -2.0937,5.44 -0.4714,1.1384 -0.9425,2.2779 -1.3614,3.437 -0.1979,0.5474 -0.4011,1.0931 -0.5942,1.6424 l -0.008,0.021 -0.007,0.0266 c -0.2877,1.0216 -0.9151,3.445 0.4116,4.0082 0.8458,0.3592 1.9114,-0.3299 2.5302,-0.8643 0.2599,-0.2247 0.5028,-0.4711 0.7194,-0.7381 0.6355,-0.7832 1.1733,-2.0052 1.62,-2.9188 0.7407,-1.5137 1.459,-3.0385 2.2354,-4.5343 0.239,-0.4609 0.4833,-0.919 0.735,-1.3729 0.8056,-1.4507 1.6725,-2.9267 2.7122,-4.223 0.4473,-0.5581 1.4777,-1.7748 2.2643,-1.5593 0.6832,0.1868 0.8513,1.3345 0.9136,1.9403 0.3184,3.0843 -1.881,6.0502 -0.6043,8.9322 0.8266,1.8664 5.6418,-0.5921 6.4817,-1.7461 0.2993,-0.4113 -0.0734,-2.0628 -0.6982,-2.0095 -0.5632,0.0479 -2.3978,1.6934 -3.1782,2.0279 l -0.8373,0.3592 0.0479,-0.91 c 0.0201,-0.3832 0.0983,-0.7682 0.1683,-1.1449 0.1698,-0.9167 0.3654,-1.8283 0.5468,-2.7428 0.3552,-1.7903 0.828,-6.2127 -1.2608,-7.1458 -3.0507,-1.3629 -5.474,2.5061 -6.787,4.6655 -0.7325,1.2047 -1.4329,2.4296 -2.0999,3.6717 -0.4275,0.7968 -1.3042,0.2931 -1.0327,-0.4603 0.2152,-0.5973 0.4266,-1.196 0.6336,-1.7961 0.5788,-1.6786 1.1418,-3.3729 1.559,-5.1001 0.1095,-0.4532 0.5757,-2.3584 0.1931,-2.715 -0.819,-0.7633 -2.4874,0.6755 -3.1003,1.1843 -1.3153,1.0919 -2.5367,2.6847 -3.6278,4.0079 -1.7288,2.0971 -3.4177,4.2268 -5.1417,6.3278 -1.4706,1.7924 -2.9512,3.5609 -4.525,5.2657 -0.9771,1.0581 -4.6726,5.2276 -6.3215,4.5184 -0.6936,-0.2982 -0.6559,-1.7929 -0.6188,-2.4412 0.0972,-1.6889 0.6417,-3.4186 1.2367,-4.9938 0.6441,-1.7042 1.27,-3.4152 1.9041,-5.1228 l 0.015,-0.0402 0.0207,-0.0374 c 0.3246,-0.5851 1.2538,-2.2944 0.4504,-2.8208 -0.8062,-0.5284 -2.0174,0.9706 -2.4497,1.4939 -0.0995,0.1204 -0.1978,0.2415 -0.2968,0.3625 l -0.3883,0.4757 -0.4431,-0.425 c -1.6061,-1.54 -3.88,-0.1493 -5.2798,0.9672 -1.0329,0.8238 -1.9562,1.7782 -2.8397,2.7576 -1.7544,1.9448 -3.4696,3.926 -5.3005,5.8002 -1.9506,1.9962 -4.3983,4.3458 -6.9412,5.5298 -0.7918,0.3688 -1.8366,0.6801 -2.6235,0.1324 -1.2917,-0.8988 -1.182,-3.6927 -1.0908,-5.1029 0.0856,-1.3224 0.2815,-2.6325 0.406,-3.9509 0.0626,-0.6628 0.0666,-2.1396 -0.7373,-2.3967 -0.5681,-0.1817 -1.0885,0.3608 -1.3887,0.7753 -1.3139,1.8127 -2.422,3.7788 -3.5771,5.6945 -0.7472,1.239 -1.4984,2.4766 -2.3014,3.6808 -0.62,0.9297 -1.2875,1.904 -2.077,2.698 -0.1057,0.1066 -0.2199,0.2129 -0.3373,0.3067 l -0.7906,0.6324 -0.1258,-1.0046 c -0.1267,-1.0091 0.0598,-2.4599 0.1233,-3.509 0.1389,-2.2969 0.1701,-4.6106 -0.1982,-6.8896 -0.5238,-3.2409 -2.6251,-3.3103 -4.3971,-0.8195 -0.197,0.2769 -0.3733,0.5678 -0.5374,0.8651 -0.2081,0.3776 -0.4161,0.7552 -0.6242,1.1327 -0.4062,-0.0807 0.1721,-0.8645 -0.4099,-1.2268 -0.0162,-0.0485 -0.0408,-0.0904 -0.0796,-0.1239 -0.4139,-0.358 -1.3269,0.4816 -1.558,0.7637 l -0.2177,0.2928 c -0.4921,0.6622 -0.9825,2.1161 -1.2846,2.9157 -0.3762,0.9947 -0.7266,1.9987 -1.088,2.9988 -0.6919,1.9137 -1.5063,3.7789 -2.2351,5.6781 -0.6973,1.8175 -1.2447,3.6561 -1.6138,5.5686 l -0.0711,0.3685 0.3203,0.1718 c 0.1605,0.0862 0.3203,0.1729 0.4808,0.2588 0.3943,0.2115 0.8713,0.339 1.2605,0.0485 l 0.1446,-0.1077 0.0544,-0.1687 c 1.0715,-3.308 2.3862,-6.5168 3.928,-9.633 1.3581,-2.7442 5.3144,-11.3462 5.7141,-8.0557 0.0405,0.331 0.0309,0.7163 0.015,1.0505 -0.1043,2.1716 -1.4644,12.1269 1.5803,12.6915 0.932,0.1727 1.8125,-0.4906 2.4344,-1.1083 1.5004,-1.4902 2.7938,-3.4773 3.945,-5.2495 0.6908,-1.0638 1.3592,-2.1416 2.02,-3.2241 l 1.1032,-1.8074 -0.0527,2.1169 c -0.0975,3.9181 1.3946,7.433 5.9468,6.1416 l 0.0521,-0.0148 0.0494,-0.0241 c 2.7586,-1.3507 5.6809,-4.1836 7.8936,-6.3286 l 0.9802,-0.9502 -0.0187,1.3649 c -0.0136,1.0009 0.1715,2.0588 1.046,2.6711 1.4406,1.0086 3.4824,-0.2835 4.5697,-1.2708 1.1245,-1.021 2.0549,-2.3658 2.8182,-3.6717 l 1.7496,-2.9928 -0.705,3.3942 c -0.0403,0.1947 -0.0785,0.3898 -0.1145,0.5854 -0.4762,2.599 0.2406,5.3841 3.3902,5.3175 z m -9.7117,-3.5028 c -0.1976,0.1251 -0.4306,0.1925 -0.6639,0.1341 -0.4876,-0.1219 -0.7152,-0.6885 -0.7917,-1.1372 -0.1301,-0.7609 0.0473,-1.6053 0.3259,-2.3159 0.7787,-1.9843 4.3526,-5.6725 6.1183,-6.9197 0.4221,-0.2979 1.0817,-0.5987 1.5353,-0.1956 0.4419,0.3932 0.3316,1.1194 0.0632,1.58 -1.4377,2.4673 -4.233,7.3647 -6.5871,8.8543 z"
           style="fill:url(#grad1)"
           id="path43" />
      </g>
    </g>
  </g>
</svg>
